<svg width="172" height="172" viewBox="0 0 172 172" fill="none" xmlns="http://www.w3.org/2000/svg">
<mask id="mask0_985_3" style="mask-type:alpha" maskUnits="userSpaceOnUse" x="0" y="0" width="172" height="172">
<rect width="172" height="172" fill="#D9D9D9"/>
</mask>
<g mask="url(#mask0_985_3)">
<path d="M84.1528 62.5528H93.3247V34.3884V31.6628H124.51V77.7706V121.38H93.3247V115.02V93.2156H77.7326H71.3121H62.1401V121.38H31.1847V77.9977V31.89H62.3693V34.6155V40.9752V62.7798H77.9618H84.1528V62.5528ZM34.8534 13.7194C26.14 19.3977 18.5732 26.893 12.8407 35.524C7.33752 43.7008 3.43938 52.7861 1.60498 62.5528C0.458487 67.5497 0 72.7737 0 77.9977C0 83.2217 0.458487 88.4458 1.60498 93.4427C7.79607 123.651 31.8726 147.273 62.1401 153.406C67.1847 154.314 72.4587 154.995 77.7326 154.995C83.0064 154.995 88.2802 154.541 93.3247 153.406C103.185 151.361 112.586 147.5 120.611 142.276L149.962 171.349L171.975 149.544L142.624 120.471C148.127 112.295 152.025 103.209 153.86 93.4427C154.777 88.4458 155.465 83.2217 155.465 77.9977C155.465 72.7737 155.006 67.5497 153.86 62.5528C147.669 32.3442 123.592 8.72244 93.3247 2.58988C88.2802 1.45422 83.0064 1 77.7326 1C72.4587 1 67.1847 1.45422 62.1401 2.58988C52.2802 4.63407 43.1082 8.49537 34.8534 13.7194Z" fill="#4295A5"/>
</g>
</svg>
